<svg width="23" height="23" viewBox="0 0 23 23" fill="none" xmlns="http://www.w3.org/2000/svg">
<path d="M23 11.7977C23 5.75303 17.8863 0.853394 11.5786 0.853394C5.27094 0.853394 0.157143 5.75345 0.157143 11.7977C0.156925 17.8418 5.27038 22.742 11.578 22.742C17.8856 22.742 22.9994 17.8419 22.9994 11.7977H23ZM5.20202 15.0229C5.10888 14.9353 5.06221 14.8194 5.06221 14.7035C5.06221 14.5906 5.10672 14.4772 5.19573 14.39L11.1477 8.5781C11.2345 8.49344 11.353 8.44517 11.4772 8.44413C11.6012 8.4433 11.7206 8.48948 11.809 8.57291L17.956 14.3848C18.1396 14.5587 18.1412 14.8417 17.9603 15.0177C17.7792 15.1933 17.4835 15.1953 17.2999 15.0218L11.4863 9.5252L5.86287 15.0171C5.68181 15.1937 5.38633 15.196 5.20221 15.0231L5.20202 15.0229Z" fill="#C0C0C0"/>
</svg>
