<svg width="23" height="22" viewBox="0 0 23 23" fill="none" xmlns="http://www.w3.org/2000/svg">
<path d="M0.157104 11C0.157104 17.0446 5.27079 21.9443 11.5785 21.9443C17.8862 21.9443 23 17.0442 23 11C23.0002 4.95586 17.8867 0.0556889 11.5791 0.0556889C5.27146 0.0556889 0.15766 4.95575 0.15766 11H0.157104ZM17.9551 7.7748C18.0482 7.86238 18.0949 7.97826 18.0949 8.09413C18.0949 8.2071 18.0504 8.32047 17.9614 8.40764L12.0095 14.2196C11.9226 14.3042 11.8041 14.3525 11.6799 14.3535C11.5559 14.3544 11.4365 14.3082 11.3481 14.2248L5.20114 8.41284C5.01747 8.23892 5.01595 7.95599 5.1968 7.77998C5.37786 7.6044 5.67356 7.60232 5.85724 7.77582L11.6708 13.2725L17.2942 7.78062C17.4753 7.604 17.7708 7.60171 17.9549 7.77458L17.9551 7.7748Z" fill="black"/>
</svg>
