<svg width="22" height="18" viewBox="0 0 22 18" fill="none" xmlns="http://www.w3.org/2000/svg">
<path d="M21.1027 8.95407C21.1027 13.8149 16.5538 17.7569 10.9401 17.7569C5.32635 17.7569 0.777588 13.8167 0.777588 8.95407C0.777588 4.09148 5.32635 0.151276 10.9401 0.151276C16.5538 0.151276 21.1027 4.09148 21.1027 8.95407Z" fill="#BCBEC0"/>
<path d="M12.0109 4.14543C12.031 4.65535 11.5991 5.06434 10.912 5.06434C10.3032 5.06434 9.8692 4.65535 9.8692 4.14543C9.8692 3.6355 10.3212 3.20911 10.9501 3.20911C11.579 3.20911 12.0109 3.61809 12.0109 4.14543ZM10.0842 14.6956V6.46012H11.8141V14.6956H10.0842Z" fill="black"/>
</svg>
