<svg width="53" height="47" viewBox="0 0 53 47" fill="none" xmlns="http://www.w3.org/2000/svg">
<rect width="53" height="47" fill="#BCBEC0"/>
<path d="M27.0557 40C35.8619 40 43 32.5501 43 23.3606C43 14.1712 35.8613 6.72115 27.0557 6.72115C18.2502 6.72083 11.1114 14.1704 11.1114 23.3598C11.1114 32.5491 18.2501 39.9992 27.0557 39.9992V40ZM22.357 14.0708C22.4846 13.9351 22.6535 13.8671 22.8223 13.8671C22.9868 13.8671 23.152 13.932 23.279 14.0617L31.7462 22.7328C31.8695 22.8593 31.9398 23.032 31.9414 23.2129C31.9426 23.3935 31.8753 23.5675 31.7537 23.6962L23.2866 32.6515C23.0332 32.9191 22.621 32.9213 22.3646 32.6579C22.1088 32.3941 22.1058 31.9633 22.3585 31.6957L30.3664 23.2262L22.3655 15.0336C22.1082 14.7698 22.1049 14.3393 22.3567 14.0711L22.357 14.0708Z" fill="white"/>
</svg>
