<svg width="52" height="47" viewBox="0 0 52 47" fill="none" xmlns="http://www.w3.org/2000/svg">
<rect x="-1" width="53" height="47" fill="#BCBEC0"/>
<path d="M24.9443 7C16.1381 7 9 14.4499 9 23.6394C9 32.8288 16.1387 40.2789 24.9443 40.2789C33.7498 40.2792 40.8886 32.8296 40.8886 23.6402C40.8886 14.4509 33.7499 7.00081 24.9443 7.00081V7ZM29.643 32.9292C29.5154 33.0649 29.3465 33.1329 29.1777 33.1329C29.0132 33.1329 28.848 33.068 28.721 32.9383L20.2538 24.2672C20.1305 24.1407 20.0602 23.968 20.0586 23.7871C20.0574 23.6065 20.1247 23.4325 20.2463 23.3038L28.7134 14.3485C28.9668 14.0809 29.379 14.0787 29.6354 14.3421C29.8912 14.6059 29.8942 15.0367 29.6415 15.3043L21.6336 23.7738L29.6345 31.9664C29.8918 32.2302 29.8951 32.6607 29.6433 32.9289L29.643 32.9292Z" fill="white"/>
</svg>
