<svg width="15" height="12" viewBox="0 0 15 12" fill="none" xmlns="http://www.w3.org/2000/svg">
<path d="M6.33678 1.89703C6.36026 1.8867 6.38595 1.88243 6.41151 1.88462C6.43707 1.88681 6.46166 1.89539 6.48304 1.90957C6.50442 1.92375 6.52188 1.94307 6.53384 1.96577C6.5458 1.98846 6.55186 2.0138 6.55146 2.03945V3.26485C6.55146 3.40578 6.60745 3.54095 6.70711 3.6406C6.80676 3.74026 6.94193 3.79625 7.08286 3.79625C7.79174 3.79625 9.22226 3.80156 10.5901 4.66986C11.6359 5.33305 12.705 6.54038 13.348 8.78925C12.264 7.74453 11.0258 7.17806 9.94178 6.87729C9.27545 6.69325 8.59067 6.58417 7.90015 6.55207C7.6175 6.53966 7.33438 6.54249 7.05204 6.56057H7.03822L7.03291 6.56164H7.03185L7.08286 7.09091L7.02972 6.56164C6.89855 6.57482 6.77697 6.63628 6.68858 6.7341C6.6002 6.83191 6.55133 6.95908 6.55146 7.09091V8.31631C6.55146 8.43109 6.43456 8.50336 6.33678 8.45872L2.10261 5.34155C2.08824 5.33089 2.07334 5.32096 2.05797 5.31179C2.03486 5.2979 2.01574 5.27827 2.00246 5.25481C1.98919 5.23134 1.98221 5.20484 1.98221 5.17788C1.98221 5.15092 1.98919 5.12441 2.00246 5.10095C2.01574 5.07748 2.03486 5.05785 2.05797 5.04397C2.07334 5.03481 2.08824 5.02487 2.10261 5.01421L6.33678 1.89703ZM7.61426 7.60742C7.68653 7.60742 7.76624 7.61061 7.85126 7.6138C8.31251 7.63506 8.95019 7.7052 9.65801 7.90182C11.0673 8.29293 12.7359 9.1793 13.8454 11.1752C13.9054 11.283 14.001 11.3665 14.1159 11.4115C14.2307 11.4564 14.3576 11.4601 14.4748 11.4218C14.592 11.3834 14.6922 11.3056 14.7583 11.2014C14.8244 11.0973 14.8522 10.9734 14.837 10.8511C14.3439 6.90811 12.8326 4.83353 11.1597 3.77286C9.83656 2.93326 8.47406 2.77171 7.61426 2.74089V2.03945C7.61436 1.82058 7.55538 1.60575 7.44354 1.41762C7.3317 1.22949 7.17116 1.07503 6.97885 0.970549C6.78653 0.866067 6.56958 0.815432 6.35089 0.823989C6.13219 0.832545 5.91986 0.899975 5.7363 1.01916L1.4915 4.14378C1.31601 4.25332 1.17129 4.40572 1.07095 4.58663C0.970615 4.76754 0.917969 4.97101 0.917969 5.17788C0.917969 5.38475 0.970615 5.58822 1.07095 5.76913C1.17129 5.95003 1.31601 6.10243 1.4915 6.21198L5.7363 9.33659C5.91986 9.45578 6.13219 9.52321 6.35089 9.53176C6.56958 9.54032 6.78653 9.48969 6.97885 9.3852C7.17116 9.28072 7.3317 9.12627 7.44354 8.93814C7.55538 8.75 7.61436 8.53517 7.61426 8.31631V7.60742Z" fill="#444444"/>
</svg>
